# xmcd
#
# Track frame offsets:
# 150
# 37491
# 47460
# 73665
# 85842
# 114160
# 145954
# 168397
# 188892
# 196196
# 205160
#
# Disc length: 2851 seconds
#
# Revision: 0
# Processed by: cddbd v1.5PL3 Copyright (c) Steve Scherf et al.
# Submitted via: Audion 3.0.2 (http://www.panic.com/audion/)
#
DISCID=9a0b210b
DTITLE=Chris Rea - Blue Street
DYEAR=1900
DGENRE=
TTITLE0=Blue Miles
TTITLE1=Blue Street
TTITLE2=Big C
TTITLE3=Big C Big Sea
TTITLE4=Hofner break
TTITLE5=Heading For The City
TTITLE6=1st Snow Mingus
TTITLE7=Piano Break
TTITLE8=Still Going To A Go Go
TTITLE9=Are You Ready
TTITLE10=Funk 48
EXTD=
EXTT0=
EXTT1=
EXTT2=
EXTT3=
EXTT4=
EXTT5=
EXTT6=
EXTT7=
EXTT8=
EXTT9=
EXTT10=
PLAYORDER=
